# xmcd
#
# Track frame offsets: 
#        182
#        18075
#        35737
#        51272
#        70787
#        89890
#        107975
#        134210
#        154550
#        180535
#        202360
#        220077
#        236782
#        259472
#
# Disc length: 3757 seconds
#
# Revision: 1
# Processed by: cddbd v1.5.2PL0 Copyright (c) Steve Scherf et al.
# Submitted via: ExactAudioCopy v1.3
#
DISCID=dd0eab0e
DTITLE=Suzanne Ciani - The Private Music of Suzanne Ciani
DYEAR=1992
DGENRE=New Age
TTITLE0=Anthem (from History of My Heart)
TTITLE1=Ondine (from Hotel Luna)
TTITLE2=Italia (from Hotel Luna)
TTITLE3=Berceuse (from Pianissimo)
TTITLE4=Hotel Luna (from Hotel Luna)
TTITLE5=Mozart (from History of My Heart)
TTITLE6=The Fifth Wave (from Seven Waves)
TTITLE7=The Velocity of Love (from the Velocity of Love)
TTITLE8=Sailing To Byzantium
TTITLE9=Inverness (from History of My Heart)
TTITLE10=Neverland (from Neverland)
TTITLE11=Tuscany (from Neverland)
TTITLE12=Drifting (from History of My Heart)
TTITLE13=Go Gently
EXTD=YEAR: 1992
EXTT0=
EXTT1=
EXTT2=
EXTT3=
EXTT4=
EXTT5=
EXTT6=
EXTT7=
EXTT8=
EXTT9=
EXTT10=
EXTT11=
EXTT12=
EXTT13=
PLAYORDER=
